<!-- assets/icons/github.svg -->
<svg width="24" height="24" viewBox="0 0 24 24" fill="none">
  <path fill="#181717" fill-rule="evenodd" clip-rule="evenodd" d="M12 .297C5.37.297 0 5.667 0 12.297c0 5.297 3.438 9.8 8.205 11.387.6.113.82-.258.82-.577v-2.234c-3.338.724-4.033-1.415-4.033-1.415-.546-1.387-1.333-1.756-1.333-1.756-1.09-.746.084-.73.084-.73 1.205.084 1.84 1.238 1.84 1.238 1.07 1.835 2.807 1.305 3.492.997.108-.776.42-1.305.763-1.605-2.665-.303-5.466-1.333-5.466-5.932 0-1.31.465-2.382 1.235-3.22-.135-.303-.54-1.523.105-3.176 0 0 1.005-.322 3.3 1.23a11.5 11.5 0 016 0c2.28-1.552 3.285-1.23 3.285-1.23.645 1.653.24 2.873.12 3.176.765.838 1.23 1.91 1.23 3.22 0 4.61-2.805 5.625-5.475 5.922.435.372.81 1.103.81 2.227v3.293c0 .33.21.698.825.577C20.565 22.092 24 17.594 24 12.297 24 5.667 18.63.297 12 .297z"/>
</svg>
