<!-- assets/icons/google.svg -->
<svg width="24" height="24" viewBox="0 0 24 24" fill="none">
  <path d="M21.805 10.023h-9.76v3.956h5.583c-.241 1.356-1.068 2.507-2.282 3.273v2.717h3.68c2.15-1.978 3.389-4.895 3.389-8.379 0-.598-.052-1.178-.148-1.74z" fill="#4285F4"/>
  <path d="M12.045 22c3.06 0 5.628-1.013 7.503-2.73l-3.68-2.717c-1.021.684-2.324 1.09-3.823 1.09-2.942 0-5.435-1.985-6.32-4.661H1.92v2.924C3.788 19.553 7.602 22 12.045 22z" fill="#34A853"/>
  <path d="M5.725 12.982a7.932 7.932 0 010-5.964V4.094H1.92a11.003 11.003 0 000 9.812l3.805-2.924z" fill="#FBBC05"/>
  <path d="M12.045 4.477c1.666 0 3.162.573 4.34 1.7l3.24-3.24C17.67 1.167 14.992 0 12.045 0 7.602 0 3.788 2.447 1.92 6.094l3.805 2.924c.885-2.676 3.378-4.661 6.32-4.661z" fill="#EA4335"/>
</svg>
