<!-- assets/icons/twitter.svg -->
<svg width="24" height="24" viewBox="0 0 24 24" fill="none">
  <path fill="#1DA1F2" d="M24 4.56a9.83 9.83 0 01-2.83.775 4.932 4.932 0 002.165-2.724 9.865 9.865 0 01-3.127 1.195 4.916 4.916 0 00-8.38 4.482A13.944 13.944 0 011.671 3.15a4.916 4.916 0 001.523 6.573 4.897 4.897 0 01-2.229-.616v.06a4.915 4.915 0 003.946 4.814 4.902 4.902 0 01-2.224.085 4.918 4.918 0 004.59 3.417A9.867 9.867 0 010 19.54a13.94 13.94 0 007.548 2.212c9.057 0 14.01-7.506 14.01-14.01 0-.213-.005-.425-.014-.636A10.012 10.012 0 0024 4.56z"/>
</svg>
